<svg xmlns="http://www.w3.org/2000/svg" xmlns:xlink="http://www.w3.org/1999/xlink" id="body_1" preserveAspectRatio="xMinYMin meet" viewBox="0 0 793 1123"><defs><clipPath id="1"><path d="M0 842L0 0L0 0L595 0L595 0L595 842L595 842L0 842z" /></clipPath><clipPath id="2"><path d="M0 0L595 0L595 0L595 842L595 842L0 842z" /></clipPath><clipPath id="3"><path d="M0 0L595 0L595 0L595 842L595 842L0 842z" /></clipPath><clipPath id="4"><path d="M-1638.4 0L426.6 0L426.6 0L426.6 842L426.6 842L-1638.4 842z" /></clipPath><clipPath id="5"><path d="M0 0L595 0L595 0L595 842L595 842L0 842z" /></clipPath></defs><g transform="matrix(1.333333 0 0 1.333333 0 0)"><g><g clip-path="url(#1)"><g clip-path="url(#2)"><path transform="matrix(1 0 0 -1 0 842)" d="M66.15 765.55L9324.149 765.55L9324.149 765.55L9324.149 764.75L9324.149 764.75L66.15 764.75z" stroke="none" fill="#EEEEEE" fill-rule="winding" /><path transform="matrix(1 0 0 -1 0 842)" d="M66.15 730.2L9324.149 730.2L9324.149 730.2L9324.149 729.4L9324.149 729.4L66.15 729.4z" stroke="none" fill="#EEEEEE" fill-rule="winding" /></g><g clip-path="url(#3)"><g clip-path="url(#4)"><path transform="matrix(1 0 0 -1 0 842)" d="M142.2 613.8L219.2 613.8" stroke="#0000FF" stroke-width="0.6" fill="none" /><path transform="matrix(1 0 0 -1 0 842)" d="M136.2 597.8L250.2 597.8" stroke="#0000FF" stroke-width="0.6" fill="none" /></g></g><g clip-path="url(#5)"><path transform="matrix(1 0 0 -1 0 842)" d="M66.15 559.75L9324.149 559.75L9324.149 559.75L9324.149 558.95L9324.149 558.95L66.15 558.95z" stroke="none" fill="#EEEEEE" fill-rule="winding" /><path transform="matrix(1 0 0 -1 0 842)" d="M66.15 331.9L9324.149 331.9L9324.149 331.9L9324.149 331.1L9324.149 331.1L66.15 331.1z" stroke="none" fill="#EEEEEE" fill-rule="winding" /><path transform="matrix(1 0 0 -1 0 842)" d="M78.96 712.52L78.24 712.64L78.24 712.64L77.64 713.12L77.64 713.12L77.16 713.84L77.16 713.84L77.04 714.56L77.04 714.56L77.16 715.4L77.16 715.4L77.64 716L77.64 716L78.24 716.36L78.24 716.36L78.96 716.6L78.96 716.6L79.8 716.36L79.8 716.36L80.4 716L80.4 716L80.88 715.4L80.88 715.4L81 714.56L81 714.56L80.88 713.84L80.88 713.84L80.4 713.12L80.4 713.12L79.8 712.64L79.8 712.64L78.96 712.52" stroke="none" fill="#333333" fill-rule="evenodd" /><path transform="matrix(1 0 0 -1 0 842)" d="M80.608 714.628L80.607 714.476L80.607 714.476L80.457 715.276L80.457 715.276L80.521 715.122L80.521 715.122L80.071 715.772L80.071 715.772L80.178 715.667L80.178 715.667L79.578 716.067L79.578 716.067L79.726 716.007L79.726 716.007L78.926 716.157L78.926 716.157L79.074 716.157L79.074 716.157L78.274 716.007L78.274 716.007L78.422 716.067L78.422 716.067L77.822 715.667L77.822 715.667L77.929 715.772L77.929 715.772L77.479 715.122L77.479 715.122L77.543 715.276L77.543 715.276L77.393 714.476L77.393 714.476L77.392 714.628L77.392 714.628L77.542 713.878L77.542 713.878L77.479 714.028L77.479 714.028L77.929 713.378L77.929 713.378L77.84 713.47L77.84 713.47L78.44 713.02L78.44 713.02L78.274 713.093L78.274 713.093L79.074 712.943L79.074 712.943L78.926 712.943L78.926 712.943L79.726 713.093L79.726 713.093L79.56 713.02L79.56 713.02L80.16 713.47L80.16 713.47L80.071 713.378L80.071 713.378L80.521 714.028L80.521 714.028L80.458 713.878L80.458 713.878L80.608 714.628M81.226 713.64L80.692 712.869L80.692 712.869L79.965 712.324L79.965 712.324L79 712.143L79 712.143L78.035 712.324L78.035 712.324L77.308 712.869L77.308 712.869L76.774 713.64L76.774 713.64L76.593 714.548L76.593 714.548L76.773 715.508L76.773 715.508L77.315 716.29L77.315 716.29L78.046 716.778L78.046 716.778L79 716.957L79 716.957L79.954 716.778L79.954 716.778L80.685 716.29L80.685 716.29L81.227 715.508L81.227 715.508L81.407 714.548L81.407 714.548L81.226 713.64z" stroke="none" fill="#333333" fill-rule="winding" /><path transform="matrix(1 0 0 -1 0 842)" d="M78.96 697.28L78.24 697.4L78.24 697.4L77.64 697.88L77.64 697.88L77.16 698.6L77.16 698.6L77.04 699.32L77.04 699.32L77.16 700.04L77.16 700.04L77.64 700.76L77.64 700.76L78.24 701.12L78.24 701.12L78.96 701.24L78.96 701.24L79.8 701.12L79.8 701.12L80.4 700.76L80.4 700.76L80.88 700.04L80.88 700.04L81 699.32L81 699.32L80.88 698.6L80.88 698.6L80.4 697.88L80.4 697.88L79.8 697.4L79.8 697.4L78.96 697.28" stroke="none" fill="#333333" fill-rule="evenodd" /><path transform="matrix(1 0 0 -1 0 842)" d="M80.608 699.378L80.607 699.226L80.607 699.226L80.457 700.026L80.457 700.026L80.521 699.872L80.521 699.872L80.071 700.522L80.071 700.522L80.178 700.417L80.178 700.417L79.578 700.817L79.578 700.817L79.726 700.757L79.726 700.757L78.926 700.907L78.926 700.907L79.074 700.907L79.074 700.907L78.274 700.757L78.274 700.757L78.422 700.817L78.422 700.817L77.822 700.417L77.822 700.417L77.929 700.522L77.929 700.522L77.479 699.872L77.479 699.872L77.543 700.026L77.543 700.026L77.393 699.226L77.393 699.226L77.392 699.378L77.392 699.378L77.542 698.628L77.542 698.628L77.479 698.778L77.479 698.778L77.929 698.128L77.929 698.128L77.84 698.22L77.84 698.22L78.44 697.77L78.44 697.77L78.274 697.843L78.274 697.843L79.074 697.693L79.074 697.693L78.926 697.693L78.926 697.693L79.726 697.843L79.726 697.843L79.56 697.77L79.56 697.77L80.16 698.22L80.16 698.22L80.071 698.128L80.071 698.128L80.521 698.778L80.521 698.778L80.458 698.628L80.458 698.628L80.608 699.378M81.226 698.39L80.692 697.619L80.692 697.619L79.965 697.074L79.965 697.074L79 696.893L79 696.893L78.035 697.074L78.035 697.074L77.308 697.619L77.308 697.619L76.774 698.39L76.774 698.39L76.593 699.298L76.593 699.298L76.773 700.258L76.773 700.258L77.315 701.04L77.315 701.04L78.046 701.528L78.046 701.528L79 701.707L79 701.707L79.954 701.528L79.954 701.528L80.685 701.04L80.685 701.04L81.227 700.258L81.227 700.258L81.407 699.298L81.407 699.298L81.226 698.39z" stroke="none" fill="#333333" fill-rule="winding" /><path transform="matrix(1 0 0 -1 0 842)" d="M78.96 680.12L78.24 680.24L78.24 680.24L77.64 680.72L77.64 680.72L77.16 681.44L77.16 681.44L77.04 682.16L77.04 682.16L77.16 683L77.16 683L77.64 683.6L77.64 683.6L78.24 683.96L78.24 683.96L78.96 684.2L78.96 684.2L79.8 683.96L79.8 683.96L80.4 683.6L80.4 683.6L80.88 683L80.88 683L81 682.16L81 682.16L80.88 681.44L80.88 681.44L80.4 680.72L80.4 680.72L79.8 680.24L79.8 680.24L78.96 680.12" stroke="none" fill="#333333" fill-rule="evenodd" /><path transform="matrix(1 0 0 -1 0 842)" d="M80.608 682.228L80.607 682.076L80.607 682.076L80.457 682.876L80.457 682.876L80.521 682.722L80.521 682.722L80.071 683.372L80.071 683.372L80.178 683.267L80.178 683.267L79.578 683.667L79.578 683.667L79.726 683.607L79.726 683.607L78.926 683.757L78.926 683.757L79.074 683.757L79.074 683.757L78.274 683.607L78.274 683.607L78.422 683.667L78.422 683.667L77.822 683.267L77.822 683.267L77.929 683.372L77.929 683.372L77.479 682.722L77.479 682.722L77.543 682.876L77.543 682.876L77.393 682.076L77.393 682.076L77.392 682.228L77.392 682.228L77.542 681.478L77.542 681.478L77.479 681.628L77.479 681.628L77.929 680.978L77.929 680.978L77.84 681.07L77.84 681.07L78.44 680.62L78.44 680.62L78.274 680.693L78.274 680.693L79.074 680.543L79.074 680.543L78.926 680.543L78.926 680.543L79.726 680.693L79.726 680.693L79.56 680.62L79.56 680.62L80.16 681.07L80.16 681.07L80.071 680.978L80.071 680.978L80.521 681.628L80.521 681.628L80.458 681.478L80.458 681.478L80.608 682.228M81.226 681.24L80.692 680.469L80.692 680.469L79.965 679.924L79.965 679.924L79 679.743L79 679.743L78.035 679.924L78.035 679.924L77.308 680.469L77.308 680.469L76.774 681.24L76.774 681.24L76.593 682.148L76.593 682.148L76.773 683.108L76.773 683.108L77.315 683.89L77.315 683.89L78.046 684.378L78.046 684.378L79 684.557L79 684.557L79.954 684.378L79.954 684.378L80.685 683.89L80.685 683.89L81.227 683.108L81.227 683.108L81.407 682.148L81.407 682.148L81.226 681.24z" stroke="none" fill="#333333" fill-rule="winding" /><path transform="matrix(1 0 0 -1 0 842)" d="M78.96 664.76L78.24 664.88L78.24 664.88L77.64 665.36L77.64 665.36L77.16 665.96L77.16 665.96L77.04 666.8L77.04 666.8L77.16 667.52L77.16 667.52L77.64 668.12L77.64 668.12L78.24 668.6L78.24 668.6L78.96 668.72L78.96 668.72L79.8 668.6L79.8 668.6L80.4 668.12L80.4 668.12L80.88 667.52L80.88 667.52L81 666.8L81 666.8L80.88 665.96L80.88 665.96L80.4 665.36L80.4 665.36L79.8 664.88L79.8 664.88L78.96 664.76" stroke="none" fill="#333333" fill-rule="evenodd" /><path transform="matrix(1 0 0 -1 0 842)" d="M80.607 666.824L80.607 666.676L80.607 666.676L80.457 667.476L80.457 667.476L80.53 667.31L80.53 667.31L80.08 667.91L80.08 667.91L80.16 667.83L80.16 667.83L79.56 668.28L79.56 668.28L79.726 668.207L79.726 668.207L78.926 668.357L78.926 668.357L79.074 668.357L79.074 668.357L78.274 668.207L78.274 668.207L78.44 668.28L78.44 668.28L77.84 667.83L77.84 667.83L77.92 667.91L77.92 667.91L77.47 667.31L77.47 667.31L77.543 667.476L77.543 667.476L77.393 666.676L77.393 666.676L77.393 666.824L77.393 666.824L77.543 666.024L77.543 666.024L77.47 666.19L77.47 666.19L77.92 665.59L77.92 665.59L77.84 665.67L77.84 665.67L78.44 665.22L78.44 665.22L78.274 665.293L78.274 665.293L79.074 665.143L79.074 665.143L78.926 665.143L78.926 665.143L79.726 665.293L79.726 665.293L79.56 665.22L79.56 665.22L80.16 665.67L80.16 665.67L80.08 665.59L80.08 665.59L80.53 666.19L80.53 666.19L80.457 666.024L80.457 666.024L80.607 666.824M81.226 665.785L80.686 665.064L80.686 665.064L79.965 664.524L79.965 664.524L79 664.343L79 664.343L78.035 664.524L78.035 664.524L77.314 665.064L77.314 665.064L76.774 665.785L76.774 665.785L76.593 666.75L76.593 666.75L76.774 667.715L76.774 667.715L77.314 668.436L77.314 668.436L78.035 668.976L78.035 668.976L79 669.157L79 669.157L79.965 668.976L79.965 668.976L80.686 668.436L80.686 668.436L81.226 667.715L81.226 667.715L81.407 666.75L81.407 666.75L81.226 665.785z" stroke="none" fill="#333333" fill-rule="winding" /><path transform="matrix(1 0 0 -1 0 842)" d="M78.96 633.2L78.24 633.32L78.24 633.32L77.64 633.8L77.64 633.8L77.16 634.4L77.16 634.4L77.04 635.24L77.04 635.24L77.16 635.96L77.16 635.96L77.64 636.68L77.64 636.68L78.24 637.04L78.24 637.04L78.96 637.16L78.96 637.16L79.8 637.04L79.8 637.04L80.4 636.68L80.4 636.68L80.88 635.96L80.88 635.96L81 635.24L81 635.24L80.88 634.4L80.88 634.4L80.4 633.8L80.4 633.8L79.8 633.32L79.8 633.32L78.96 633.2" stroke="none" fill="#333333" fill-rule="evenodd" /><path transform="matrix(1 0 0 -1 0 842)" d="M80.608 635.278L80.607 635.126L80.607 635.126L80.457 635.926L80.457 635.926L80.521 635.772L80.521 635.772L80.071 636.422L80.071 636.422L80.178 636.317L80.178 636.317L79.578 636.717L79.578 636.717L79.726 636.657L79.726 636.657L78.926 636.807L78.926 636.807L79.074 636.807L79.074 636.807L78.274 636.657L78.274 636.657L78.422 636.717L78.422 636.717L77.822 636.317L77.822 636.317L77.929 636.422L77.929 636.422L77.479 635.772L77.479 635.772L77.543 635.926L77.543 635.926L77.393 635.126L77.393 635.126L77.392 635.278L77.392 635.278L77.542 634.528L77.542 634.528L77.479 634.678L77.479 634.678L77.929 634.028L77.929 634.028L77.84 634.12L77.84 634.12L78.44 633.67L78.44 633.67L78.274 633.743L78.274 633.743L79.074 633.593L79.074 633.593L78.926 633.593L78.926 633.593L79.726 633.743L79.726 633.743L79.56 633.67L79.56 633.67L80.16 634.12L80.16 634.12L80.071 634.028L80.071 634.028L80.521 634.678L80.521 634.678L80.458 634.528L80.458 634.528L80.608 635.278M81.226 634.29L80.692 633.519L80.692 633.519L79.965 632.974L79.965 632.974L79 632.793L79 632.793L78.035 632.974L78.035 632.974L77.308 633.519L77.308 633.519L76.774 634.29L76.774 634.29L76.593 635.198L76.593 635.198L76.773 636.158L76.773 636.158L77.315 636.94L77.315 636.94L78.046 637.428L78.046 637.428L79 637.607L79 637.607L79.954 637.428L79.954 637.428L80.685 636.94L80.685 636.94L81.227 636.158L81.227 636.158L81.407 635.198L81.407 635.198L81.226 634.29z" stroke="none" fill="#333333" fill-rule="winding" /><path transform="matrix(1 0 0 -1 0 842)" d="M78.96 617.24L78.24 617.36L78.24 617.36L77.64 617.84L77.64 617.84L77.16 618.44L77.16 618.44L77.04 619.16L77.04 619.16L77.16 620L77.16 620L77.64 620.6L77.64 620.6L78.24 621.08L78.24 621.08L78.96 621.2L78.96 621.2L79.8 621.08L79.8 621.08L80.4 620.6L80.4 620.6L80.88 620L80.88 620L81 619.16L81 619.16L80.88 618.44L80.88 618.44L80.4 617.84L80.4 617.84L79.8 617.36L79.8 617.36L78.96 617.24" stroke="none" fill="#333333" fill-rule="evenodd" /><path transform="matrix(1 0 0 -1 0 842)" d="M80.608 619.278L80.607 619.126L80.607 619.126L80.457 619.926L80.457 619.926L80.521 619.772L80.521 619.772L80.071 620.422L80.071 620.422L80.178 620.317L80.178 620.317L79.578 620.717L79.578 620.717L79.726 620.657L79.726 620.657L78.926 620.807L78.926 620.807L79.074 620.807L79.074 620.807L78.274 620.657L78.274 620.657L78.422 620.717L78.422 620.717L77.822 620.317L77.822 620.317L77.929 620.422L77.929 620.422L77.479 619.772L77.479 619.772L77.543 619.926L77.543 619.926L77.393 619.126L77.393 619.126L77.392 619.278L77.392 619.278L77.542 618.528L77.542 618.528L77.479 618.678L77.479 618.678L77.929 618.028L77.929 618.028L77.84 618.12L77.84 618.12L78.44 617.67L78.44 617.67L78.274 617.743L78.274 617.743L79.074 617.593L79.074 617.593L78.926 617.593L78.926 617.593L79.726 617.743L79.726 617.743L79.56 617.67L79.56 617.67L80.16 618.12L80.16 618.12L80.071 618.028L80.071 618.028L80.521 618.678L80.521 618.678L80.458 618.528L80.458 618.528L80.608 619.278M81.226 618.29L80.692 617.519L80.692 617.519L79.965 616.974L79.965 616.974L79 616.793L79 616.793L78.035 616.974L78.035 616.974L77.308 617.519L77.308 617.519L76.774 618.29L76.774 618.29L76.593 619.198L76.593 619.198L76.773 620.158L76.773 620.158L77.315 620.94L77.315 620.94L78.046 621.428L78.046 621.428L79 621.607L79 621.607L79.954 621.428L79.954 621.428L80.685 620.94L80.685 620.94L81.227 620.158L81.227 620.158L81.407 619.198L81.407 619.198L81.226 618.29z" stroke="none" fill="#333333" fill-rule="winding" /><path transform="matrix(1 0 0 -1 0 842)" d="M78.96 600.8L78.24 600.92L78.24 600.92L77.64 601.4L77.64 601.4L77.16 602L77.16 602L77.04 602.72L77.04 602.72L77.16 603.56L77.16 603.56L77.64 604.16L77.64 604.16L78.24 604.64L78.24 604.64L78.96 604.76L78.96 604.76L79.8 604.64L79.8 604.64L80.4 604.16L80.4 604.16L80.88 603.56L80.88 603.56L81 602.72L81 602.72L80.88 602L80.88 602L80.4 601.4L80.4 601.4L79.8 600.92L79.8 600.92L78.96 600.8" stroke="none" fill="#333333" fill-rule="evenodd" /><path transform="matrix(1 0 0 -1 0 842)" d="M80.607 602.824L80.607 602.676L80.607 602.676L80.457 603.476L80.457 603.476L80.53 603.31L80.53 603.31L80.08 603.91L80.08 603.91L80.16 603.83L80.16 603.83L79.56 604.28L79.56 604.28L79.726 604.207L79.726 604.207L78.926 604.357L78.926 604.357L79.074 604.357L79.074 604.357L78.274 604.207L78.274 604.207L78.44 604.28L78.44 604.28L77.84 603.83L77.84 603.83L77.92 603.91L77.92 603.91L77.47 603.31L77.47 603.31L77.543 603.476L77.543 603.476L77.393 602.676L77.393 602.676L77.393 602.824L77.393 602.824L77.543 602.024L77.543 602.024L77.47 602.19L77.47 602.19L77.92 601.59L77.92 601.59L77.84 601.67L77.84 601.67L78.44 601.22L78.44 601.22L78.274 601.293L78.274 601.293L79.074 601.143L79.074 601.143L78.926 601.143L78.926 601.143L79.726 601.293L79.726 601.293L79.56 601.22L79.56 601.22L80.16 601.67L80.16 601.67L80.08 601.59L80.08 601.59L80.53 602.19L80.53 602.19L80.457 602.024L80.457 602.024L80.607 602.824M81.226 601.785L80.686 601.064L80.686 601.064L79.965 600.524L79.965 600.524L79 600.343L79 600.343L78.035 600.524L78.035 600.524L77.314 601.064L77.314 601.064L76.774 601.785L76.774 601.785L76.593 602.75L76.593 602.75L76.774 603.715L76.774 603.715L77.314 604.436L77.314 604.436L78.035 604.976L78.035 604.976L79 605.157L79 605.157L79.965 604.976L79.965 604.976L80.686 604.436L80.686 604.436L81.226 603.715L81.226 603.715L81.407 602.75L81.407 602.75L81.226 601.785z" stroke="none" fill="#333333" fill-rule="winding" /><path transform="matrix(1 0 0 -1 0 842)" d="M78.96 264.2L78.24 264.32L78.24 264.32L77.64 264.8L77.64 264.8L77.16 265.4L77.16 265.4L77.04 266.12L77.04 266.12L77.16 266.84L77.16 266.84L77.64 267.56L77.64 267.56L78.24 268.04L78.24 268.04L78.96 268.16L78.96 268.16L79.8 268.04L79.8 268.04L80.4 267.56L80.4 267.56L80.88 266.84L80.88 266.84L81 266.12L81 266.12L80.88 265.4L80.88 265.4L80.4 264.8L80.4 264.8L79.8 264.32L79.8 264.32L78.96 264.2" stroke="none" fill="#333333" fill-rule="evenodd" /><path transform="matrix(1 0 0 -1 0 842)" d="M80.607 266.224L80.608 266.072L80.608 266.072L80.458 266.822L80.458 266.822L80.521 266.672L80.521 266.672L80.071 267.322L80.071 267.322L80.16 267.23L80.16 267.23L79.56 267.68L79.56 267.68L79.726 267.607L79.726 267.607L78.926 267.757L78.926 267.757L79.074 267.757L79.074 267.757L78.274 267.607L78.274 267.607L78.44 267.68L78.44 267.68L77.84 267.23L77.84 267.23L77.929 267.322L77.929 267.322L77.479 266.672L77.479 266.672L77.542 266.822L77.542 266.822L77.392 266.072L77.392 266.072L77.393 266.224L77.393 266.224L77.543 265.424L77.543 265.424L77.47 265.59L77.47 265.59L77.92 264.99L77.92 264.99L77.84 265.07L77.84 265.07L78.44 264.62L78.44 264.62L78.274 264.693L78.274 264.693L79.074 264.543L79.074 264.543L78.926 264.543L78.926 264.543L79.726 264.693L79.726 264.693L79.56 264.62L79.56 264.62L80.16 265.07L80.16 265.07L80.08 264.99L80.08 264.99L80.53 265.59L80.53 265.59L80.457 265.424L80.457 265.424L80.607 266.224M81.226 265.185L80.686 264.464L80.686 264.464L79.965 263.924L79.965 263.924L79 263.743L79 263.743L78.035 263.924L78.035 263.924L77.314 264.464L77.314 264.464L76.774 265.185L76.774 265.185L76.593 266.152L76.593 266.152L76.774 267.06L76.774 267.06L77.308 267.831L77.308 267.831L78.035 268.376L78.035 268.376L79 268.557L79 268.557L79.965 268.376L79.965 268.376L80.692 267.831L80.692 267.831L81.226 267.06L81.226 267.06L81.407 266.152L81.407 266.152L81.226 265.185z" stroke="none" fill="#333333" fill-rule="winding" /><path transform="matrix(1 0 0 -1 0 842)" d="M78.96 231.08L78.24 231.2L78.24 231.2L77.64 231.68L77.64 231.68L77.16 232.4L77.16 232.4L77.04 233.12L77.04 233.12L77.16 233.84L77.16 233.84L77.64 234.56L77.64 234.56L78.24 234.92L78.24 234.92L78.96 235.04L78.96 235.04L79.8 234.92L79.8 234.92L80.4 234.56L80.4 234.56L80.88 233.84L80.88 233.84L81 233.12L81 233.12L80.88 232.4L80.88 232.4L80.4 231.68L80.4 231.68L79.8 231.2L79.8 231.2L78.96 231.08" stroke="none" fill="#333333" fill-rule="evenodd" /><path transform="matrix(1 0 0 -1 0 842)" d="M80.608 233.178L80.607 233.026L80.607 233.026L80.457 233.826L80.457 233.826L80.521 233.672L80.521 233.672L80.071 234.322L80.071 234.322L80.178 234.217L80.178 234.217L79.578 234.617L79.578 234.617L79.726 234.557L79.726 234.557L78.926 234.707L78.926 234.707L79.074 234.707L79.074 234.707L78.274 234.557L78.274 234.557L78.422 234.617L78.422 234.617L77.822 234.217L77.822 234.217L77.929 234.322L77.929 234.322L77.479 233.672L77.479 233.672L77.543 233.826L77.543 233.826L77.393 233.026L77.393 233.026L77.392 233.178L77.392 233.178L77.542 232.428L77.542 232.428L77.479 232.578L77.479 232.578L77.929 231.928L77.929 231.928L77.84 232.02L77.84 232.02L78.44 231.57L78.44 231.57L78.274 231.643L78.274 231.643L79.074 231.493L79.074 231.493L78.926 231.493L78.926 231.493L79.726 231.643L79.726 231.643L79.56 231.57L79.56 231.57L80.16 232.02L80.16 232.02L80.071 231.928L80.071 231.928L80.521 232.578L80.521 232.578L80.458 232.428L80.458 232.428L80.608 233.178M81.226 232.19L80.692 231.419L80.692 231.419L79.965 230.874L79.965 230.874L79 230.693L79 230.693L78.035 230.874L78.035 230.874L77.308 231.419L77.308 231.419L76.774 232.19L76.774 232.19L76.593 233.098L76.593 233.098L76.773 234.058L76.773 234.058L77.315 234.841L77.315 234.841L78.046 235.328L78.046 235.328L79 235.507L79 235.507L79.954 235.328L79.954 235.328L80.685 234.841L80.685 234.841L81.227 234.058L81.227 234.058L81.407 233.098L81.407 233.098L81.226 232.19z" stroke="none" fill="#333333" fill-rule="winding" /><path transform="matrix(1 0 0 -1 0 842)" d="M78.96 138.68L78.24 138.8L78.24 138.8L77.64 139.28L77.64 139.28L77.16 139.88L77.16 139.88L77.04 140.6L77.04 140.6L77.16 141.44L77.16 141.44L77.64 142.04L77.64 142.04L78.24 142.52L78.24 142.52L78.96 142.64L78.96 142.64L79.8 142.52L79.8 142.52L80.4 142.04L80.4 142.04L80.88 141.44L80.88 141.44L81 140.6L81 140.6L80.88 139.88L80.88 139.88L80.4 139.28L80.4 139.28L79.8 138.8L79.8 138.8L78.96 138.68" stroke="none" fill="#333333" fill-rule="evenodd" /><path transform="matrix(1 0 0 -1 0 842)" d="M80.607 140.724L80.608 140.572L80.608 140.572L80.458 141.322L80.458 141.322L80.521 141.172L80.521 141.172L80.071 141.822L80.071 141.822L80.16 141.73L80.16 141.73L79.56 142.18L79.56 142.18L79.726 142.107L79.726 142.107L78.926 142.257L78.926 142.257L79.074 142.257L79.074 142.257L78.274 142.107L78.274 142.107L78.44 142.18L78.44 142.18L77.84 141.73L77.84 141.73L77.929 141.822L77.929 141.822L77.479 141.172L77.479 141.172L77.542 141.322L77.542 141.322L77.392 140.572L77.392 140.572L77.393 140.724L77.393 140.724L77.543 139.924L77.543 139.924L77.47 140.09L77.47 140.09L77.92 139.49L77.92 139.49L77.84 139.57L77.84 139.57L78.44 139.12L78.44 139.12L78.274 139.193L78.274 139.193L79.074 139.043L79.074 139.043L78.926 139.043L78.926 139.043L79.726 139.193L79.726 139.193L79.56 139.12L79.56 139.12L80.16 139.57L80.16 139.57L80.08 139.49L80.08 139.49L80.53 140.09L80.53 140.09L80.457 139.924L80.457 139.924L80.607 140.724M81.226 139.685L80.686 138.964L80.686 138.964L79.965 138.424L79.965 138.424L79 138.243L79 138.243L78.035 138.424L78.035 138.424L77.314 138.964L77.314 138.964L76.774 139.685L76.774 139.685L76.593 140.652L76.593 140.652L76.774 141.56L76.774 141.56L77.308 142.331L77.308 142.331L78.035 142.876L78.035 142.876L79 143.057L79 143.057L79.965 142.876L79.965 142.876L80.692 142.331L80.692 142.331L81.226 141.56L81.226 141.56L81.407 140.652L81.407 140.652L81.226 139.685z" stroke="none" fill="#333333" fill-rule="winding" /><path transform="matrix(1 0 0 -1 0 842)" d="M78.96 106.4L78.24 106.52L78.24 106.52L77.64 107L77.64 107L77.16 107.6L77.16 107.6L77.04 108.32L77.04 108.32L77.16 109.16L77.16 109.16L77.64 109.76L77.64 109.76L78.24 110.24L78.24 110.24L78.96 110.36L78.96 110.36L79.8 110.24L79.8 110.24L80.4 109.76L80.4 109.76L80.88 109.16L80.88 109.16L81 108.32L81 108.32L80.88 107.6L80.88 107.6L80.4 107L80.4 107L79.8 106.52L79.8 106.52L78.96 106.4" stroke="none" fill="#333333" fill-rule="evenodd" /><path transform="matrix(1 0 0 -1 0 842)" d="M80.608 108.428L80.607 108.276L80.607 108.276L80.457 109.076L80.457 109.076L80.521 108.922L80.521 108.922L80.071 109.572L80.071 109.572L80.178 109.467L80.178 109.467L79.578 109.867L79.578 109.867L79.726 109.807L79.726 109.807L78.926 109.957L78.926 109.957L79.074 109.957L79.074 109.957L78.274 109.807L78.274 109.807L78.422 109.867L78.422 109.867L77.822 109.467L77.822 109.467L77.929 109.572L77.929 109.572L77.479 108.922L77.479 108.922L77.543 109.076L77.543 109.076L77.393 108.276L77.393 108.276L77.392 108.428L77.392 108.428L77.542 107.678L77.542 107.678L77.479 107.828L77.479 107.828L77.929 107.178L77.929 107.178L77.84 107.27L77.84 107.27L78.44 106.82L78.44 106.82L78.274 106.893L78.274 106.893L79.074 106.743L79.074 106.743L78.926 106.743L78.926 106.743L79.726 106.893L79.726 106.893L79.56 106.82L79.56 106.82L80.16 107.27L80.16 107.27L80.071 107.178L80.071 107.178L80.521 107.828L80.521 107.828L80.458 107.678L80.458 107.678L80.608 108.428M81.226 107.44L80.692 106.669L80.692 106.669L79.965 106.124L79.965 106.124L79 105.943L79 105.943L78.035 106.124L78.035 106.124L77.308 106.669L77.308 106.669L76.774 107.44L76.774 107.44L76.593 108.348L76.593 108.348L76.773 109.308L76.773 109.308L77.315 110.09L77.315 110.09L78.046 110.578L78.046 110.578L79 110.757L79 110.757L79.954 110.578L79.954 110.578L80.685 110.09L80.685 110.09L81.227 109.308L81.227 109.308L81.407 108.348L81.407 108.348L81.226 107.44z" stroke="none" fill="#333333" fill-rule="winding" /><path transform="matrix(1 0 0 -1 0 842)" d="M78.96 649.04L78.24 649.16L78.24 649.16L77.64 649.64L77.64 649.64L77.16 650.24L77.16 650.24L77.04 650.96L77.04 650.96L77.16 651.8L77.16 651.8L77.64 652.4L77.64 652.4L78.24 652.88L78.24 652.88L78.96 653L78.96 653L79.8 652.88L79.8 652.88L80.4 652.4L80.4 652.4L80.88 651.8L80.88 651.8L81 650.96L81 650.96L80.88 650.24L80.88 650.24L80.4 649.64L80.4 649.64L79.8 649.16L79.8 649.16L78.96 649.04" stroke="none" fill="#333333" fill-rule="evenodd" /><path transform="matrix(1 0 0 -1 0 842)" d="M80.607 651.074L80.607 650.926L80.607 650.926L80.457 651.726L80.457 651.726L80.53 651.56L80.53 651.56L80.08 652.16L80.08 652.16L80.16 652.08L80.16 652.08L79.56 652.53L79.56 652.53L79.726 652.457L79.726 652.457L78.926 652.607L78.926 652.607L79.074 652.607L79.074 652.607L78.274 652.457L78.274 652.457L78.44 652.53L78.44 652.53L77.84 652.08L77.84 652.08L77.92 652.16L77.92 652.16L77.47 651.56L77.47 651.56L77.543 651.726L77.543 651.726L77.393 650.926L77.393 650.926L77.393 651.074L77.393 651.074L77.543 650.274L77.543 650.274L77.47 650.44L77.47 650.44L77.92 649.84L77.92 649.84L77.84 649.92L77.84 649.92L78.44 649.47L78.44 649.47L78.274 649.543L78.274 649.543L79.074 649.393L79.074 649.393L78.926 649.393L78.926 649.393L79.726 649.543L79.726 649.543L79.56 649.47L79.56 649.47L80.16 649.92L80.16 649.92L80.08 649.84L80.08 649.84L80.53 650.44L80.53 650.44L80.457 650.274L80.457 650.274L80.607 651.074M81.226 650.035L80.686 649.314L80.686 649.314L79.965 648.774L79.965 648.774L79 648.593L79 648.593L78.035 648.774L78.035 648.774L77.314 649.314L77.314 649.314L76.774 650.035L76.774 650.035L76.593 651L76.593 651L76.774 651.965L76.774 651.965L77.314 652.686L77.314 652.686L78.035 653.226L78.035 653.226L79 653.407L79 653.407L79.965 653.226L79.965 653.226L80.686 652.686L80.686 652.686L81.226 651.965L81.226 651.965L81.407 651L81.407 651L81.226 650.035z" stroke="none" fill="#333333" fill-rule="winding" /><g transform="matrix(0.1353755 0 0 0.1353814 435.6 130.56)"><g transform="matrix(1 0 0 1 0 0)"><image x="0" y="0" xlink:href="img_01.png" width="679" height="944" /></g></g></g></g></g></g></svg>