<svg xmlns="http://www.w3.org/2000/svg" xmlns:xlink="http://www.w3.org/1999/xlink" id="body_1" preserveAspectRatio="xMinYMin meet" viewBox="0 0 793 1123"><defs><clipPath id="1"><path d="M0 842L0 0L0 0L595 0L595 0L595 842L595 842L0 842z" /></clipPath><clipPath id="2"><path d="M0 0L595 0L595 0L595 842L595 842L0 842z" /></clipPath><clipPath id="3"><path d="M0 0L595 0L595 0L595 842L595 842L0 842z" /></clipPath><clipPath id="4"><path d="M-1638.4 0L420.2999 0L420.2999 0L420.2999 842L420.2999 842L-1638.4 842z" /></clipPath><clipPath id="5"><path d="M0 0L595 0L595 0L595 842L595 842L0 842z" /></clipPath></defs><g transform="matrix(1.333333 0 0 1.333333 0 0)"><g><g clip-path="url(#1)"><g clip-path="url(#2)"><path transform="matrix(1 0 0 -1 0 842)" d="M66.15 765.55L9324.149 765.55L9324.149 765.55L9324.149 764.75L9324.149 764.75L66.15 764.75z" stroke="none" fill="#EEEEEE" fill-rule="winding" /><path transform="matrix(1 0 0 -1 0 842)" d="M66.15 730.2L9324.149 730.2L9324.149 730.2L9324.149 729.4L9324.149 729.4L66.15 729.4z" stroke="none" fill="#EEEEEE" fill-rule="winding" /></g><g clip-path="url(#3)"><g clip-path="url(#4)"><path transform="matrix(1 0 0 -1 0 842)" d="M142.2 629.85L201.6 629.85" stroke="#0000FF" stroke-width="0.6" fill="none" /><path transform="matrix(1 0 0 -1 0 842)" d="M136.2 613.8L250.2 613.8" stroke="#0000FF" stroke-width="0.6" fill="none" /></g></g><g clip-path="url(#5)"><path transform="matrix(1 0 0 -1 0 842)" d="M66.15 559.75L9324.149 559.75L9324.149 559.75L9324.149 558.95L9324.149 558.95L66.15 558.95z" stroke="none" fill="#EEEEEE" fill-rule="winding" /><path transform="matrix(1 0 0 -1 0 842)" d="M66.15 331.9L9324.149 331.9L9324.149 331.9L9324.149 331.1L9324.149 331.1L66.15 331.1z" stroke="none" fill="#EEEEEE" fill-rule="winding" /><path transform="matrix(1 0 0 -1 0 842)" d="M78.96 712.52L78.24 712.64L78.24 712.64L77.64 713.12L77.64 713.12L77.16 713.84L77.16 713.84L77.04 714.56L77.04 714.56L77.16 715.4L77.16 715.4L77.64 716L77.64 716L78.24 716.36L78.24 716.36L78.96 716.6L78.96 716.6L79.8 716.36L79.8 716.36L80.4 716L80.4 716L80.88 715.4L80.88 715.4L81 714.56L81 714.56L80.88 713.84L80.88 713.84L80.4 713.12L80.4 713.12L79.8 712.64L79.8 712.64L78.96 712.52" stroke="none" fill="#333333" fill-rule="evenodd" /><path transform="matrix(1 0 0 -1 0 842)" d="M80.608 714.628L80.607 714.476L80.607 714.476L80.457 715.276L80.457 715.276L80.521 715.122L80.521 715.122L80.071 715.772L80.071 715.772L80.178 715.667L80.178 715.667L79.578 716.067L79.578 716.067L79.726 716.007L79.726 716.007L78.926 716.157L78.926 716.157L79.074 716.157L79.074 716.157L78.274 716.007L78.274 716.007L78.422 716.067L78.422 716.067L77.822 715.667L77.822 715.667L77.929 715.772L77.929 715.772L77.479 715.122L77.479 715.122L77.543 715.276L77.543 715.276L77.393 714.476L77.393 714.476L77.392 714.628L77.392 714.628L77.542 713.878L77.542 713.878L77.479 714.028L77.479 714.028L77.929 713.378L77.929 713.378L77.84 713.47L77.84 713.47L78.44 713.02L78.44 713.02L78.274 713.093L78.274 713.093L79.074 712.943L79.074 712.943L78.926 712.943L78.926 712.943L79.726 713.093L79.726 713.093L79.56 713.02L79.56 713.02L80.16 713.47L80.16 713.47L80.071 713.378L80.071 713.378L80.521 714.028L80.521 714.028L80.458 713.878L80.458 713.878L80.608 714.628M81.226 713.64L80.692 712.869L80.692 712.869L79.965 712.324L79.965 712.324L79 712.143L79 712.143L78.035 712.324L78.035 712.324L77.308 712.869L77.308 712.869L76.774 713.64L76.774 713.64L76.593 714.548L76.593 714.548L76.773 715.508L76.773 715.508L77.315 716.29L77.315 716.29L78.046 716.778L78.046 716.778L79 716.957L79 716.957L79.954 716.778L79.954 716.778L80.685 716.29L80.685 716.29L81.227 715.508L81.227 715.508L81.407 714.548L81.407 714.548L81.226 713.64z" stroke="none" fill="#333333" fill-rule="winding" /><path transform="matrix(1 0 0 -1 0 842)" d="M78.96 697.28L78.24 697.4L78.24 697.4L77.64 697.88L77.64 697.88L77.16 698.6L77.16 698.6L77.04 699.32L77.04 699.32L77.16 700.04L77.16 700.04L77.64 700.76L77.64 700.76L78.24 701.12L78.24 701.12L78.96 701.24L78.96 701.24L79.8 701.12L79.8 701.12L80.4 700.76L80.4 700.76L80.88 700.04L80.88 700.04L81 699.32L81 699.32L80.88 698.6L80.88 698.6L80.4 697.88L80.4 697.88L79.8 697.4L79.8 697.4L78.96 697.28" stroke="none" fill="#333333" fill-rule="evenodd" /><path transform="matrix(1 0 0 -1 0 842)" d="M80.608 699.378L80.607 699.226L80.607 699.226L80.457 700.026L80.457 700.026L80.521 699.872L80.521 699.872L80.071 700.522L80.071 700.522L80.178 700.417L80.178 700.417L79.578 700.817L79.578 700.817L79.726 700.757L79.726 700.757L78.926 700.907L78.926 700.907L79.074 700.907L79.074 700.907L78.274 700.757L78.274 700.757L78.422 700.817L78.422 700.817L77.822 700.417L77.822 700.417L77.929 700.522L77.929 700.522L77.479 699.872L77.479 699.872L77.543 700.026L77.543 700.026L77.393 699.226L77.393 699.226L77.392 699.378L77.392 699.378L77.542 698.628L77.542 698.628L77.479 698.778L77.479 698.778L77.929 698.128L77.929 698.128L77.84 698.22L77.84 698.22L78.44 697.77L78.44 697.77L78.274 697.843L78.274 697.843L79.074 697.693L79.074 697.693L78.926 697.693L78.926 697.693L79.726 697.843L79.726 697.843L79.56 697.77L79.56 697.77L80.16 698.22L80.16 698.22L80.071 698.128L80.071 698.128L80.521 698.778L80.521 698.778L80.458 698.628L80.458 698.628L80.608 699.378M81.226 698.39L80.692 697.619L80.692 697.619L79.965 697.074L79.965 697.074L79 696.893L79 696.893L78.035 697.074L78.035 697.074L77.308 697.619L77.308 697.619L76.774 698.39L76.774 698.39L76.593 699.298L76.593 699.298L76.773 700.258L76.773 700.258L77.315 701.04L77.315 701.04L78.046 701.528L78.046 701.528L79 701.707L79 701.707L79.954 701.528L79.954 701.528L80.685 701.04L80.685 701.04L81.227 700.258L81.227 700.258L81.407 699.298L81.407 699.298L81.226 698.39z" stroke="none" fill="#333333" fill-rule="winding" /><path transform="matrix(1 0 0 -1 0 842)" d="M78.96 681.2L78.24 681.32L78.24 681.32L77.64 681.8L77.64 681.8L77.16 682.4L77.16 682.4L77.04 683.24L77.04 683.24L77.16 683.96L77.16 683.96L77.64 684.56L77.64 684.56L78.24 685.04L78.24 685.04L78.96 685.16L78.96 685.16L79.8 685.04L79.8 685.04L80.4 684.56L80.4 684.56L80.88 683.96L80.88 683.96L81 683.24L81 683.24L80.88 682.4L80.88 682.4L80.4 681.8L80.4 681.8L79.8 681.32L79.8 681.32L78.96 681.2" stroke="none" fill="#333333" fill-rule="evenodd" /><path transform="matrix(1 0 0 -1 0 842)" d="M80.607 683.274L80.607 683.126L80.607 683.126L80.457 683.926L80.457 683.926L80.53 683.76L80.53 683.76L80.08 684.36L80.08 684.36L80.16 684.28L80.16 684.28L79.56 684.73L79.56 684.73L79.726 684.657L79.726 684.657L78.926 684.807L78.926 684.807L79.074 684.807L79.074 684.807L78.274 684.657L78.274 684.657L78.44 684.73L78.44 684.73L77.84 684.28L77.84 684.28L77.92 684.36L77.92 684.36L77.47 683.76L77.47 683.76L77.543 683.926L77.543 683.926L77.393 683.126L77.393 683.126L77.393 683.274L77.393 683.274L77.543 682.474L77.543 682.474L77.47 682.64L77.47 682.64L77.92 682.04L77.92 682.04L77.84 682.12L77.84 682.12L78.44 681.67L78.44 681.67L78.274 681.743L78.274 681.743L79.074 681.593L79.074 681.593L78.926 681.593L78.926 681.593L79.726 681.743L79.726 681.743L79.56 681.67L79.56 681.67L80.16 682.12L80.16 682.12L80.08 682.04L80.08 682.04L80.53 682.64L80.53 682.64L80.457 682.474L80.457 682.474L80.607 683.274M81.226 682.235L80.686 681.514L80.686 681.514L79.965 680.974L79.965 680.974L79 680.793L79 680.793L78.035 680.974L78.035 680.974L77.314 681.514L77.314 681.514L76.774 682.235L76.774 682.235L76.593 683.2L76.593 683.2L76.774 684.165L76.774 684.165L77.314 684.886L77.314 684.886L78.035 685.426L78.035 685.426L79 685.607L79 685.607L79.965 685.426L79.965 685.426L80.686 684.886L80.686 684.886L81.226 684.165L81.226 684.165L81.407 683.2L81.407 683.2L81.226 682.235z" stroke="none" fill="#333333" fill-rule="winding" /><path transform="matrix(1 0 0 -1 0 842)" d="M78.96 649.16L78.24 649.28L78.24 649.28L77.64 649.76L77.64 649.76L77.16 650.36L77.16 650.36L77.04 651.2L77.04 651.2L77.16 651.92L77.16 651.92L77.64 652.64L77.64 652.64L78.24 653L78.24 653L78.96 653.12L78.96 653.12L79.8 653L79.8 653L80.4 652.64L80.4 652.64L80.88 651.92L80.88 651.92L81 651.2L81 651.2L80.88 650.36L80.88 650.36L80.4 649.76L80.4 649.76L79.8 649.28L79.8 649.28L78.96 649.16" stroke="none" fill="#333333" fill-rule="evenodd" /><path transform="matrix(1 0 0 -1 0 842)" d="M80.608 651.228L80.607 651.076L80.607 651.076L80.457 651.876L80.457 651.876L80.521 651.722L80.521 651.722L80.071 652.372L80.071 652.372L80.178 652.267L80.178 652.267L79.578 652.667L79.578 652.667L79.726 652.607L79.726 652.607L78.926 652.757L78.926 652.757L79.074 652.757L79.074 652.757L78.274 652.607L78.274 652.607L78.422 652.667L78.422 652.667L77.822 652.267L77.822 652.267L77.929 652.372L77.929 652.372L77.479 651.722L77.479 651.722L77.543 651.876L77.543 651.876L77.393 651.076L77.393 651.076L77.392 651.228L77.392 651.228L77.542 650.478L77.542 650.478L77.479 650.628L77.479 650.628L77.929 649.978L77.929 649.978L77.84 650.07L77.84 650.07L78.44 649.62L78.44 649.62L78.274 649.693L78.274 649.693L79.074 649.543L79.074 649.543L78.926 649.543L78.926 649.543L79.726 649.693L79.726 649.693L79.56 649.62L79.56 649.62L80.16 650.07L80.16 650.07L80.071 649.978L80.071 649.978L80.521 650.628L80.521 650.628L80.458 650.478L80.458 650.478L80.608 651.228M81.226 650.24L80.692 649.469L80.692 649.469L79.965 648.924L79.965 648.924L79 648.743L79 648.743L78.035 648.924L78.035 648.924L77.308 649.469L77.308 649.469L76.774 650.24L76.774 650.24L76.593 651.148L76.593 651.148L76.773 652.108L76.773 652.108L77.315 652.89L77.315 652.89L78.046 653.378L78.046 653.378L79 653.557L79 653.557L79.954 653.378L79.954 653.378L80.685 652.89L80.685 652.89L81.227 652.108L81.227 652.108L81.407 651.148L81.407 651.148L81.226 650.24z" stroke="none" fill="#333333" fill-rule="winding" /><path transform="matrix(1 0 0 -1 0 842)" d="M78.96 633.2L78.24 633.32L78.24 633.32L77.64 633.8L77.64 633.8L77.16 634.4L77.16 634.4L77.04 635.12L77.04 635.12L77.16 635.96L77.16 635.96L77.64 636.56L77.64 636.56L78.24 637.04L78.24 637.04L78.96 637.16L78.96 637.16L79.8 637.04L79.8 637.04L80.4 636.56L80.4 636.56L80.88 635.96L80.88 635.96L81 635.12L81 635.12L80.88 634.4L80.88 634.4L80.4 633.8L80.4 633.8L79.8 633.32L79.8 633.32L78.96 633.2" stroke="none" fill="#333333" fill-rule="evenodd" /><path transform="matrix(1 0 0 -1 0 842)" d="M80.608 635.228L80.607 635.076L80.607 635.076L80.457 635.876L80.457 635.876L80.521 635.722L80.521 635.722L80.071 636.372L80.071 636.372L80.178 636.267L80.178 636.267L79.578 636.667L79.578 636.667L79.726 636.607L79.726 636.607L78.926 636.757L78.926 636.757L79.074 636.757L79.074 636.757L78.274 636.607L78.274 636.607L78.422 636.667L78.422 636.667L77.822 636.267L77.822 636.267L77.929 636.372L77.929 636.372L77.479 635.722L77.479 635.722L77.543 635.876L77.543 635.876L77.393 635.076L77.393 635.076L77.392 635.228L77.392 635.228L77.542 634.478L77.542 634.478L77.479 634.628L77.479 634.628L77.929 633.978L77.929 633.978L77.84 634.07L77.84 634.07L78.44 633.62L78.44 633.62L78.274 633.693L78.274 633.693L79.074 633.543L79.074 633.543L78.926 633.543L78.926 633.543L79.726 633.693L79.726 633.693L79.56 633.62L79.56 633.62L80.16 634.07L80.16 634.07L80.071 633.978L80.071 633.978L80.521 634.628L80.521 634.628L80.458 634.478L80.458 634.478L80.608 635.228M81.226 634.24L80.692 633.469L80.692 633.469L79.965 632.924L79.965 632.924L79 632.743L79 632.743L78.035 632.924L78.035 632.924L77.308 633.469L77.308 633.469L76.774 634.24L76.774 634.24L76.593 635.148L76.593 635.148L76.773 636.108L76.773 636.108L77.315 636.89L77.315 636.89L78.046 637.378L78.046 637.378L79 637.557L79 637.557L79.954 637.378L79.954 637.378L80.685 636.89L80.685 636.89L81.227 636.108L81.227 636.108L81.407 635.148L81.407 635.148L81.226 634.24z" stroke="none" fill="#333333" fill-rule="winding" /><path transform="matrix(1 0 0 -1 0 842)" d="M78.96 616.64L78.24 616.88L78.24 616.88L77.64 617.24L77.64 617.24L77.16 617.84L77.16 617.84L77.04 618.68L77.04 618.68L77.16 619.52L77.16 619.52L77.64 620.12L77.64 620.12L78.24 620.6L78.24 620.6L78.96 620.72L78.96 620.72L79.8 620.6L79.8 620.6L80.4 620.12L80.4 620.12L80.88 619.52L80.88 619.52L81 618.68L81 618.68L80.88 617.84L80.88 617.84L80.4 617.24L80.4 617.24L79.8 616.88L79.8 616.88L78.96 616.64" stroke="none" fill="#333333" fill-rule="evenodd" /><path transform="matrix(1 0 0 -1 0 842)" d="M80.607 618.774L80.607 618.626L80.607 618.626L80.457 619.426L80.457 619.426L80.53 619.26L80.53 619.26L80.08 619.86L80.08 619.86L80.16 619.78L80.16 619.78L79.56 620.23L79.56 620.23L79.726 620.157L79.726 620.157L78.926 620.307L78.926 620.307L79.074 620.307L79.074 620.307L78.274 620.157L78.274 620.157L78.44 620.23L78.44 620.23L77.84 619.78L77.84 619.78L77.92 619.86L77.92 619.86L77.47 619.26L77.47 619.26L77.543 619.426L77.543 619.426L77.393 618.626L77.393 618.626L77.393 618.774L77.393 618.774L77.543 617.974L77.543 617.974L77.47 618.14L77.47 618.14L77.92 617.54L77.92 617.54L77.84 617.62L77.84 617.62L78.44 617.17L78.44 617.17L78.274 617.243L78.274 617.243L79.074 617.093L79.074 617.093L78.926 617.093L78.926 617.093L79.726 617.243L79.726 617.243L79.56 617.17L79.56 617.17L80.16 617.62L80.16 617.62L80.08 617.54L80.08 617.54L80.53 618.14L80.53 618.14L80.457 617.974L80.457 617.974L80.607 618.774M81.226 617.735L80.686 617.014L80.686 617.014L79.965 616.474L79.965 616.474L79 616.293L79 616.293L78.035 616.474L78.035 616.474L77.314 617.014L77.314 617.014L76.774 617.735L76.774 617.735L76.593 618.7L76.593 618.7L76.774 619.665L76.774 619.665L77.314 620.386L77.314 620.386L78.035 620.926L78.035 620.926L79 621.107L79 621.107L79.965 620.926L79.965 620.926L80.686 620.386L80.686 620.386L81.226 619.665L81.226 619.665L81.407 618.7L81.407 618.7L81.226 617.735z" stroke="none" fill="#333333" fill-rule="winding" /><path transform="matrix(1 0 0 -1 0 842)" d="M78.96 600.92L78.24 601.04L78.24 601.04L77.64 601.52L77.64 601.52L77.16 602.12L77.16 602.12L77.04 602.96L77.04 602.96L77.16 603.68L77.16 603.68L77.64 604.4L77.64 604.4L78.24 604.76L78.24 604.76L78.96 605L78.96 605L79.8 604.76L79.8 604.76L80.4 604.4L80.4 604.4L80.88 603.68L80.88 603.68L81 602.96L81 602.96L80.88 602.12L80.88 602.12L80.4 601.52L80.4 601.52L79.8 601.04L79.8 601.04L78.96 600.92" stroke="none" fill="#333333" fill-rule="evenodd" /><path transform="matrix(1 0 0 -1 0 842)" d="M80.607 603.024L80.608 602.872L80.608 602.872L80.458 603.622L80.458 603.622L80.521 603.472L80.521 603.472L80.071 604.122L80.071 604.122L80.16 604.03L80.16 604.03L79.56 604.48L79.56 604.48L79.726 604.407L79.726 604.407L78.926 604.557L78.926 604.557L79.074 604.557L79.074 604.557L78.274 604.407L78.274 604.407L78.44 604.48L78.44 604.48L77.84 604.03L77.84 604.03L77.929 604.122L77.929 604.122L77.479 603.472L77.479 603.472L77.542 603.622L77.542 603.622L77.392 602.872L77.392 602.872L77.393 603.024L77.393 603.024L77.543 602.224L77.543 602.224L77.479 602.378L77.479 602.378L77.929 601.728L77.929 601.728L77.822 601.833L77.822 601.833L78.422 601.433L78.422 601.433L78.274 601.493L78.274 601.493L79.074 601.343L79.074 601.343L78.926 601.343L78.926 601.343L79.726 601.493L79.726 601.493L79.578 601.433L79.578 601.433L80.178 601.833L80.178 601.833L80.071 601.728L80.071 601.728L80.521 602.378L80.521 602.378L80.457 602.224L80.457 602.224L80.607 603.024M81.227 601.992L80.685 601.21L80.685 601.21L79.954 600.722L79.954 600.722L79 600.543L79 600.543L78.046 600.722L78.046 600.722L77.315 601.21L77.315 601.21L76.773 601.992L76.773 601.992L76.593 602.952L76.593 602.952L76.774 603.86L76.774 603.86L77.308 604.631L77.308 604.631L78.035 605.176L78.035 605.176L79 605.357L79 605.357L79.965 605.176L79.965 605.176L80.692 604.631L80.692 604.631L81.226 603.86L81.226 603.86L81.407 602.952L81.407 602.952L81.227 601.992z" stroke="none" fill="#333333" fill-rule="winding" /><path transform="matrix(1 0 0 -1 0 842)" d="M78.96 665L78.24 665.12L78.24 665.12L77.64 665.6L77.64 665.6L77.16 666.2L77.16 666.2L77.04 666.92L77.04 666.92L77.16 667.76L77.16 667.76L77.64 668.36L77.64 668.36L78.24 668.84L78.24 668.84L78.96 668.96L78.96 668.96L79.8 668.84L79.8 668.84L80.4 668.36L80.4 668.36L80.88 667.76L80.88 667.76L81 666.92L81 666.92L80.88 666.2L80.88 666.2L80.4 665.6L80.4 665.6L79.8 665.12L79.8 665.12L78.96 665" stroke="none" fill="#333333" fill-rule="evenodd" /><path transform="matrix(1 0 0 -1 0 842)" d="M80.607 667.024L80.607 666.876L80.607 666.876L80.457 667.676L80.457 667.676L80.53 667.51L80.53 667.51L80.08 668.11L80.08 668.11L80.16 668.03L80.16 668.03L79.56 668.48L79.56 668.48L79.726 668.407L79.726 668.407L78.926 668.557L78.926 668.557L79.074 668.557L79.074 668.557L78.274 668.407L78.274 668.407L78.44 668.48L78.44 668.48L77.84 668.03L77.84 668.03L77.92 668.11L77.92 668.11L77.47 667.51L77.47 667.51L77.543 667.676L77.543 667.676L77.393 666.876L77.393 666.876L77.393 667.024L77.393 667.024L77.543 666.224L77.543 666.224L77.47 666.39L77.47 666.39L77.92 665.79L77.92 665.79L77.84 665.87L77.84 665.87L78.44 665.42L78.44 665.42L78.274 665.493L78.274 665.493L79.074 665.343L79.074 665.343L78.926 665.343L78.926 665.343L79.726 665.493L79.726 665.493L79.56 665.42L79.56 665.42L80.16 665.87L80.16 665.87L80.08 665.79L80.08 665.79L80.53 666.39L80.53 666.39L80.457 666.224L80.457 666.224L80.607 667.024M81.226 665.985L80.686 665.264L80.686 665.264L79.965 664.724L79.965 664.724L79 664.543L79 664.543L78.035 664.724L78.035 664.724L77.314 665.264L77.314 665.264L76.774 665.985L76.774 665.985L76.593 666.95L76.593 666.95L76.774 667.915L76.774 667.915L77.314 668.636L77.314 668.636L78.035 669.176L78.035 669.176L79 669.357L79 669.357L79.965 669.176L79.965 669.176L80.686 668.636L80.686 668.636L81.226 667.915L81.226 667.915L81.407 666.95L81.407 666.95L81.226 665.985z" stroke="none" fill="#333333" fill-rule="winding" /><path transform="matrix(1 0 0 -1 0 842)" d="M78.96 264.2L78.24 264.32L78.24 264.32L77.64 264.8L77.64 264.8L77.16 265.4L77.16 265.4L77.04 266.12L77.04 266.12L77.16 266.84L77.16 266.84L77.64 267.56L77.64 267.56L78.24 268.04L78.24 268.04L78.96 268.16L78.96 268.16L79.8 268.04L79.8 268.04L80.4 267.56L80.4 267.56L80.88 266.84L80.88 266.84L81 266.12L81 266.12L80.88 265.4L80.88 265.4L80.4 264.8L80.4 264.8L79.8 264.32L79.8 264.32L78.96 264.2" stroke="none" fill="#333333" fill-rule="evenodd" /><path transform="matrix(1 0 0 -1 0 842)" d="M80.607 266.224L80.608 266.072L80.608 266.072L80.458 266.822L80.458 266.822L80.521 266.672L80.521 266.672L80.071 267.322L80.071 267.322L80.16 267.23L80.16 267.23L79.56 267.68L79.56 267.68L79.726 267.607L79.726 267.607L78.926 267.757L78.926 267.757L79.074 267.757L79.074 267.757L78.274 267.607L78.274 267.607L78.44 267.68L78.44 267.68L77.84 267.23L77.84 267.23L77.929 267.322L77.929 267.322L77.479 266.672L77.479 266.672L77.542 266.822L77.542 266.822L77.392 266.072L77.392 266.072L77.393 266.224L77.393 266.224L77.543 265.424L77.543 265.424L77.47 265.59L77.47 265.59L77.92 264.99L77.92 264.99L77.84 265.07L77.84 265.07L78.44 264.62L78.44 264.62L78.274 264.693L78.274 264.693L79.074 264.543L79.074 264.543L78.926 264.543L78.926 264.543L79.726 264.693L79.726 264.693L79.56 264.62L79.56 264.62L80.16 265.07L80.16 265.07L80.08 264.99L80.08 264.99L80.53 265.59L80.53 265.59L80.457 265.424L80.457 265.424L80.607 266.224M81.226 265.185L80.686 264.464L80.686 264.464L79.965 263.924L79.965 263.924L79 263.743L79 263.743L78.035 263.924L78.035 263.924L77.314 264.464L77.314 264.464L76.774 265.185L76.774 265.185L76.593 266.152L76.593 266.152L76.774 267.06L76.774 267.06L77.308 267.831L77.308 267.831L78.035 268.376L78.035 268.376L79 268.557L79 268.557L79.965 268.376L79.965 268.376L80.692 267.831L80.692 267.831L81.226 267.06L81.226 267.06L81.407 266.152L81.407 266.152L81.226 265.185z" stroke="none" fill="#333333" fill-rule="winding" /><path transform="matrix(1 0 0 -1 0 842)" d="M78.96 231.08L78.24 231.2L78.24 231.2L77.64 231.68L77.64 231.68L77.16 232.4L77.16 232.4L77.04 233.12L77.04 233.12L77.16 233.84L77.16 233.84L77.64 234.56L77.64 234.56L78.24 234.92L78.24 234.92L78.96 235.04L78.96 235.04L79.8 234.92L79.8 234.92L80.4 234.56L80.4 234.56L80.88 233.84L80.88 233.84L81 233.12L81 233.12L80.88 232.4L80.88 232.4L80.4 231.68L80.4 231.68L79.8 231.2L79.8 231.2L78.96 231.08" stroke="none" fill="#333333" fill-rule="evenodd" /><path transform="matrix(1 0 0 -1 0 842)" d="M80.608 233.178L80.607 233.026L80.607 233.026L80.457 233.826L80.457 233.826L80.521 233.672L80.521 233.672L80.071 234.322L80.071 234.322L80.178 234.217L80.178 234.217L79.578 234.617L79.578 234.617L79.726 234.557L79.726 234.557L78.926 234.707L78.926 234.707L79.074 234.707L79.074 234.707L78.274 234.557L78.274 234.557L78.422 234.617L78.422 234.617L77.822 234.217L77.822 234.217L77.929 234.322L77.929 234.322L77.479 233.672L77.479 233.672L77.543 233.826L77.543 233.826L77.393 233.026L77.393 233.026L77.392 233.178L77.392 233.178L77.542 232.428L77.542 232.428L77.479 232.578L77.479 232.578L77.929 231.928L77.929 231.928L77.84 232.02L77.84 232.02L78.44 231.57L78.44 231.57L78.274 231.643L78.274 231.643L79.074 231.493L79.074 231.493L78.926 231.493L78.926 231.493L79.726 231.643L79.726 231.643L79.56 231.57L79.56 231.57L80.16 232.02L80.16 232.02L80.071 231.928L80.071 231.928L80.521 232.578L80.521 232.578L80.458 232.428L80.458 232.428L80.608 233.178M81.226 232.19L80.692 231.419L80.692 231.419L79.965 230.874L79.965 230.874L79 230.693L79 230.693L78.035 230.874L78.035 230.874L77.308 231.419L77.308 231.419L76.774 232.19L76.774 232.19L76.593 233.098L76.593 233.098L76.773 234.058L76.773 234.058L77.315 234.841L77.315 234.841L78.046 235.328L78.046 235.328L79 235.507L79 235.507L79.954 235.328L79.954 235.328L80.685 234.841L80.685 234.841L81.227 234.058L81.227 234.058L81.407 233.098L81.407 233.098L81.226 232.19z" stroke="none" fill="#333333" fill-rule="winding" /><path transform="matrix(1 0 0 -1 0 842)" d="M78.96 138.68L78.24 138.8L78.24 138.8L77.64 139.28L77.64 139.28L77.16 139.88L77.16 139.88L77.04 140.6L77.04 140.6L77.16 141.44L77.16 141.44L77.64 142.04L77.64 142.04L78.24 142.52L78.24 142.52L78.96 142.64L78.96 142.64L79.8 142.52L79.8 142.52L80.4 142.04L80.4 142.04L80.88 141.44L80.88 141.44L81 140.6L81 140.6L80.88 139.88L80.88 139.88L80.4 139.28L80.4 139.28L79.8 138.8L79.8 138.8L78.96 138.68" stroke="none" fill="#333333" fill-rule="evenodd" /><path transform="matrix(1 0 0 -1 0 842)" d="M80.607 140.724L80.608 140.572L80.608 140.572L80.458 141.322L80.458 141.322L80.521 141.172L80.521 141.172L80.071 141.822L80.071 141.822L80.16 141.73L80.16 141.73L79.56 142.18L79.56 142.18L79.726 142.107L79.726 142.107L78.926 142.257L78.926 142.257L79.074 142.257L79.074 142.257L78.274 142.107L78.274 142.107L78.44 142.18L78.44 142.18L77.84 141.73L77.84 141.73L77.929 141.822L77.929 141.822L77.479 141.172L77.479 141.172L77.542 141.322L77.542 141.322L77.392 140.572L77.392 140.572L77.393 140.724L77.393 140.724L77.543 139.924L77.543 139.924L77.47 140.09L77.47 140.09L77.92 139.49L77.92 139.49L77.84 139.57L77.84 139.57L78.44 139.12L78.44 139.12L78.274 139.193L78.274 139.193L79.074 139.043L79.074 139.043L78.926 139.043L78.926 139.043L79.726 139.193L79.726 139.193L79.56 139.12L79.56 139.12L80.16 139.57L80.16 139.57L80.08 139.49L80.08 139.49L80.53 140.09L80.53 140.09L80.457 139.924L80.457 139.924L80.607 140.724M81.226 139.685L80.686 138.964L80.686 138.964L79.965 138.424L79.965 138.424L79 138.243L79 138.243L78.035 138.424L78.035 138.424L77.314 138.964L77.314 138.964L76.774 139.685L76.774 139.685L76.593 140.652L76.593 140.652L76.774 141.56L76.774 141.56L77.308 142.331L77.308 142.331L78.035 142.876L78.035 142.876L79 143.057L79 143.057L79.965 142.876L79.965 142.876L80.692 142.331L80.692 142.331L81.226 141.56L81.226 141.56L81.407 140.652L81.407 140.652L81.226 139.685z" stroke="none" fill="#333333" fill-rule="winding" /><path transform="matrix(1 0 0 -1 0 842)" d="M78.96 106.4L78.24 106.52L78.24 106.52L77.64 107L77.64 107L77.16 107.6L77.16 107.6L77.04 108.32L77.04 108.32L77.16 109.16L77.16 109.16L77.64 109.76L77.64 109.76L78.24 110.24L78.24 110.24L78.96 110.36L78.96 110.36L79.8 110.24L79.8 110.24L80.4 109.76L80.4 109.76L80.88 109.16L80.88 109.16L81 108.32L81 108.32L80.88 107.6L80.88 107.6L80.4 107L80.4 107L79.8 106.52L79.8 106.52L78.96 106.4" stroke="none" fill="#333333" fill-rule="evenodd" /><path transform="matrix(1 0 0 -1 0 842)" d="M80.608 108.428L80.607 108.276L80.607 108.276L80.457 109.076L80.457 109.076L80.521 108.922L80.521 108.922L80.071 109.572L80.071 109.572L80.178 109.467L80.178 109.467L79.578 109.867L79.578 109.867L79.726 109.807L79.726 109.807L78.926 109.957L78.926 109.957L79.074 109.957L79.074 109.957L78.274 109.807L78.274 109.807L78.422 109.867L78.422 109.867L77.822 109.467L77.822 109.467L77.929 109.572L77.929 109.572L77.479 108.922L77.479 108.922L77.543 109.076L77.543 109.076L77.393 108.276L77.393 108.276L77.392 108.428L77.392 108.428L77.542 107.678L77.542 107.678L77.479 107.828L77.479 107.828L77.929 107.178L77.929 107.178L77.84 107.27L77.84 107.27L78.44 106.82L78.44 106.82L78.274 106.893L78.274 106.893L79.074 106.743L79.074 106.743L78.926 106.743L78.926 106.743L79.726 106.893L79.726 106.893L79.56 106.82L79.56 106.82L80.16 107.27L80.16 107.27L80.071 107.178L80.071 107.178L80.521 107.828L80.521 107.828L80.458 107.678L80.458 107.678L80.608 108.428M81.226 107.44L80.692 106.669L80.692 106.669L79.965 106.124L79.965 106.124L79 105.943L79 105.943L78.035 106.124L78.035 106.124L77.308 106.669L77.308 106.669L76.774 107.44L76.774 107.44L76.593 108.348L76.593 108.348L76.773 109.308L76.773 109.308L77.315 110.09L77.315 110.09L78.046 110.578L78.046 110.578L79 110.757L79 110.757L79.954 110.578L79.954 110.578L80.685 110.09L80.685 110.09L81.227 109.308L81.227 109.308L81.407 108.348L81.407 108.348L81.226 107.44z" stroke="none" fill="#333333" fill-rule="winding" /><g transform="matrix(0.3275342 0 0 0.3272165 429.36 124.68)"><g transform="matrix(1 0 0 1 0 0)"><image x="0" y="0" xlink:href="img_01.png" width="292" height="388" /></g></g></g></g></g></g></svg>