<svg xmlns="http://www.w3.org/2000/svg" xmlns:xlink="http://www.w3.org/1999/xlink" id="body_2" preserveAspectRatio="xMinYMin meet" viewBox="0 0 793 1123"><defs><clipPath id="1"><path d="M0 842L0 0L0 0L595 0L595 0L595 842L595 842L0 842z" /></clipPath><clipPath id="2"><path d="M0 0L595 0L595 0L595 842L595 842L0 842z" /></clipPath></defs><g transform="matrix(1.333333 0 0 1.333333 0 0)"><g><g clip-path="url(#1)"><g clip-path="url(#2)"><path transform="matrix(1 0 0 -1 0 842)" d="M177 519L240 519" stroke="#0000FF" stroke-width="0.6" fill="none" /><path transform="matrix(1 0 0 -1 0 842)" d="M66.15 512.35L9324.149 512.35L9324.149 512.35L9324.149 511.55L9324.149 511.55L66.15 511.55z" stroke="none" fill="#EEEEEE" fill-rule="winding" /><path transform="matrix(1 0 0 -1 0 842)" d="M66.15 384.6L9324.149 384.6L9324.149 384.6L9324.149 383.8L9324.149 383.8L66.15 383.8z" stroke="none" fill="#EEEEEE" fill-rule="winding" /><path transform="matrix(1 0 0 -1 0 842)" d="M66.15 231.75L9324.149 231.75L9324.149 231.75L9324.149 230.95L9324.149 230.95L66.15 230.95z" stroke="none" fill="#EEEEEE" fill-rule="winding" /><path transform="matrix(1 0 0 -1 0 842)" d="M137.15 204.8L196.4 204.8" stroke="#0000FF" stroke-width="0.6" fill="none" /><path transform="matrix(1 0 0 -1 0 842)" d="M126.6 186.6L300.6 186.6" stroke="#0000FF" stroke-width="0.6" fill="none" /><path transform="matrix(1 0 0 -1 0 842)" d="M131.25 153.2L250.55 153.2" stroke="#0000FF" stroke-width="0.6" fill="none" /><path transform="matrix(1 0 0 -1 0 842)" d="M66.15 101.15L9324.149 101.15L9324.149 101.15L9324.149 100.35L9324.149 100.35L66.15 100.35z" stroke="none" fill="#EEEEEE" fill-rule="winding" /><path transform="matrix(1 0 0 -1 0 842)" d="M78.96 745.88L78.24 746L78.24 746L77.64 746.48L77.64 746.48L77.16 747.08L77.16 747.08L77.04 747.8L77.04 747.8L77.16 748.64L77.16 748.64L77.64 749.24L77.64 749.24L78.24 749.72L78.24 749.72L78.96 749.84L78.96 749.84L79.8 749.72L79.8 749.72L80.4 749.24L80.4 749.24L80.88 748.64L80.88 748.64L81 747.8L81 747.8L80.88 747.08L80.88 747.08L80.4 746.48L80.4 746.48L79.8 746L79.8 746L78.96 745.88" stroke="none" fill="#333333" fill-rule="evenodd" /><path transform="matrix(1 0 0 -1 0 842)" d="M80.607 747.924L80.608 747.772L80.608 747.772L80.458 748.522L80.458 748.522L80.521 748.372L80.521 748.372L80.071 749.022L80.071 749.022L80.16 748.93L80.16 748.93L79.56 749.38L79.56 749.38L79.726 749.307L79.726 749.307L78.926 749.457L78.926 749.457L79.074 749.457L79.074 749.457L78.274 749.307L78.274 749.307L78.44 749.38L78.44 749.38L77.84 748.93L77.84 748.93L77.929 749.022L77.929 749.022L77.479 748.372L77.479 748.372L77.542 748.522L77.542 748.522L77.392 747.772L77.392 747.772L77.393 747.924L77.393 747.924L77.543 747.124L77.543 747.124L77.47 747.29L77.47 747.29L77.92 746.69L77.92 746.69L77.84 746.77L77.84 746.77L78.44 746.32L78.44 746.32L78.274 746.393L78.274 746.393L79.074 746.243L79.074 746.243L78.926 746.243L78.926 746.243L79.726 746.393L79.726 746.393L79.56 746.32L79.56 746.32L80.16 746.77L80.16 746.77L80.08 746.69L80.08 746.69L80.53 747.29L80.53 747.29L80.457 747.124L80.457 747.124L80.607 747.924M81.226 746.885L80.686 746.164L80.686 746.164L79.965 745.624L79.965 745.624L79 745.443L79 745.443L78.035 745.624L78.035 745.624L77.314 746.164L77.314 746.164L76.774 746.885L76.774 746.885L76.593 747.852L76.593 747.852L76.774 748.76L76.774 748.76L77.308 749.531L77.308 749.531L78.035 750.076L78.035 750.076L79 750.257L79 750.257L79.965 750.076L79.965 750.076L80.692 749.531L80.692 749.531L81.226 748.76L81.226 748.76L81.407 747.852L81.407 747.852L81.226 746.885z" stroke="none" fill="#333333" fill-rule="winding" /><path transform="matrix(1 0 0 -1 0 842)" d="M78.96 712.88L78.24 713L78.24 713L77.64 713.48L77.64 713.48L77.16 714.08L77.16 714.08L77.04 714.8L77.04 714.8L77.16 715.64L77.16 715.64L77.64 716.24L77.64 716.24L78.24 716.72L78.24 716.72L78.96 716.84L78.96 716.84L79.8 716.72L79.8 716.72L80.4 716.24L80.4 716.24L80.88 715.64L80.88 715.64L81 714.8L81 714.8L80.88 714.08L80.88 714.08L80.4 713.48L80.4 713.48L79.8 713L79.8 713L78.96 712.88" stroke="none" fill="#333333" fill-rule="evenodd" /><path transform="matrix(1 0 0 -1 0 842)" d="M80.608 714.928L80.607 714.776L80.607 714.776L80.457 715.576L80.457 715.576L80.521 715.422L80.521 715.422L80.071 716.072L80.071 716.072L80.178 715.967L80.178 715.967L79.578 716.367L79.578 716.367L79.726 716.307L79.726 716.307L78.926 716.457L78.926 716.457L79.074 716.457L79.074 716.457L78.274 716.307L78.274 716.307L78.422 716.367L78.422 716.367L77.822 715.967L77.822 715.967L77.929 716.072L77.929 716.072L77.479 715.422L77.479 715.422L77.543 715.576L77.543 715.576L77.393 714.776L77.393 714.776L77.392 714.928L77.392 714.928L77.542 714.178L77.542 714.178L77.479 714.328L77.479 714.328L77.929 713.678L77.929 713.678L77.84 713.77L77.84 713.77L78.44 713.32L78.44 713.32L78.274 713.393L78.274 713.393L79.074 713.243L79.074 713.243L78.926 713.243L78.926 713.243L79.726 713.393L79.726 713.393L79.56 713.32L79.56 713.32L80.16 713.77L80.16 713.77L80.071 713.678L80.071 713.678L80.521 714.328L80.521 714.328L80.458 714.178L80.458 714.178L80.608 714.928M81.226 713.94L80.692 713.169L80.692 713.169L79.965 712.624L79.965 712.624L79 712.443L79 712.443L78.035 712.624L78.035 712.624L77.308 713.169L77.308 713.169L76.774 713.94L76.774 713.94L76.593 714.848L76.593 714.848L76.773 715.808L76.773 715.808L77.315 716.59L77.315 716.59L78.046 717.078L78.046 717.078L79 717.257L79 717.257L79.954 717.078L79.954 717.078L80.685 716.59L80.685 716.59L81.227 715.808L81.227 715.808L81.407 714.848L81.407 714.848L81.226 713.94z" stroke="none" fill="#333333" fill-rule="winding" /><path transform="matrix(1 0 0 -1 0 842)" d="M78.96 637.28L78.24 637.4L78.24 637.4L77.64 637.88L77.64 637.88L77.16 638.48L77.16 638.48L77.04 639.2L77.04 639.2L77.16 640.04L77.16 640.04L77.64 640.64L77.64 640.64L78.24 641.12L78.24 641.12L78.96 641.24L78.96 641.24L79.8 641.12L79.8 641.12L80.4 640.64L80.4 640.64L80.88 640.04L80.88 640.04L81 639.2L81 639.2L80.88 638.48L80.88 638.48L80.4 637.88L80.4 637.88L79.8 637.4L79.8 637.4L78.96 637.28" stroke="none" fill="#333333" fill-rule="evenodd" /><path transform="matrix(1 0 0 -1 0 842)" d="M80.607 639.324L80.608 639.172L80.608 639.172L80.458 639.922L80.458 639.922L80.521 639.772L80.521 639.772L80.071 640.422L80.071 640.422L80.16 640.33L80.16 640.33L79.56 640.78L79.56 640.78L79.726 640.707L79.726 640.707L78.926 640.857L78.926 640.857L79.074 640.857L79.074 640.857L78.274 640.707L78.274 640.707L78.44 640.78L78.44 640.78L77.84 640.33L77.84 640.33L77.929 640.422L77.929 640.422L77.479 639.772L77.479 639.772L77.542 639.922L77.542 639.922L77.392 639.172L77.392 639.172L77.393 639.324L77.393 639.324L77.543 638.524L77.543 638.524L77.47 638.69L77.47 638.69L77.92 638.09L77.92 638.09L77.84 638.17L77.84 638.17L78.44 637.72L78.44 637.72L78.274 637.793L78.274 637.793L79.074 637.643L79.074 637.643L78.926 637.643L78.926 637.643L79.726 637.793L79.726 637.793L79.56 637.72L79.56 637.72L80.16 638.17L80.16 638.17L80.08 638.09L80.08 638.09L80.53 638.69L80.53 638.69L80.457 638.524L80.457 638.524L80.607 639.324M81.226 638.285L80.686 637.564L80.686 637.564L79.965 637.024L79.965 637.024L79 636.843L79 636.843L78.035 637.024L78.035 637.024L77.314 637.564L77.314 637.564L76.774 638.285L76.774 638.285L76.593 639.252L76.593 639.252L76.774 640.16L76.774 640.16L77.308 640.931L77.308 640.931L78.035 641.476L78.035 641.476L79 641.657L79 641.657L79.965 641.476L79.965 641.476L80.692 640.931L80.692 640.931L81.226 640.16L81.226 640.16L81.407 639.252L81.407 639.252L81.226 638.285z" stroke="none" fill="#333333" fill-rule="winding" /><path transform="matrix(1 0 0 -1 0 842)" d="M78.96 605L78.24 605.12L78.24 605.12L77.64 605.6L77.64 605.6L77.16 606.2L77.16 606.2L77.04 606.92L77.04 606.92L77.16 607.76L77.16 607.76L77.64 608.36L77.64 608.36L78.24 608.84L78.24 608.84L78.96 608.96L78.96 608.96L79.8 608.84L79.8 608.84L80.4 608.36L80.4 608.36L80.88 607.76L80.88 607.76L81 606.92L81 606.92L80.88 606.2L80.88 606.2L80.4 605.6L80.4 605.6L79.8 605.12L79.8 605.12L78.96 605" stroke="none" fill="#333333" fill-rule="evenodd" /><path transform="matrix(1 0 0 -1 0 842)" d="M80.608 607.028L80.607 606.876L80.607 606.876L80.457 607.676L80.457 607.676L80.521 607.522L80.521 607.522L80.071 608.172L80.071 608.172L80.178 608.067L80.178 608.067L79.578 608.467L79.578 608.467L79.726 608.407L79.726 608.407L78.926 608.557L78.926 608.557L79.074 608.557L79.074 608.557L78.274 608.407L78.274 608.407L78.422 608.467L78.422 608.467L77.822 608.067L77.822 608.067L77.929 608.172L77.929 608.172L77.479 607.522L77.479 607.522L77.543 607.676L77.543 607.676L77.393 606.876L77.393 606.876L77.392 607.028L77.392 607.028L77.542 606.278L77.542 606.278L77.479 606.428L77.479 606.428L77.929 605.778L77.929 605.778L77.84 605.87L77.84 605.87L78.44 605.42L78.44 605.42L78.274 605.493L78.274 605.493L79.074 605.343L79.074 605.343L78.926 605.343L78.926 605.343L79.726 605.493L79.726 605.493L79.56 605.42L79.56 605.42L80.16 605.87L80.16 605.87L80.071 605.778L80.071 605.778L80.521 606.428L80.521 606.428L80.458 606.278L80.458 606.278L80.608 607.028M81.226 606.04L80.692 605.269L80.692 605.269L79.965 604.724L79.965 604.724L79 604.543L79 604.543L78.035 604.724L78.035 604.724L77.308 605.269L77.308 605.269L76.774 606.04L76.774 606.04L76.593 606.948L76.593 606.948L76.773 607.908L76.773 607.908L77.315 608.69L77.315 608.69L78.046 609.178L78.046 609.178L79 609.357L79 609.357L79.954 609.178L79.954 609.178L80.685 608.69L80.685 608.69L81.227 607.908L81.227 607.908L81.407 606.948L81.407 606.948L81.226 606.04z" stroke="none" fill="#333333" fill-rule="winding" /><path transform="matrix(1 0 0 -1 0 842)" d="M78.96 476.12L78.24 476.24L78.24 476.24L77.64 476.72L77.64 476.72L77.16 477.32L77.16 477.32L77.04 478.16L77.04 478.16L77.16 479L77.16 479L77.64 479.6L77.64 479.6L78.24 479.96L78.24 479.96L78.96 480.2L78.96 480.2L79.8 479.96L79.8 479.96L80.4 479.6L80.4 479.6L80.88 479L80.88 479L81 478.16L81 478.16L80.88 477.32L80.88 477.32L80.4 476.72L80.4 476.72L79.8 476.24L79.8 476.24L78.96 476.12" stroke="none" fill="#333333" fill-rule="evenodd" /><path transform="matrix(1 0 0 -1 0 842)" d="M80.607 478.224L80.607 478.076L80.607 478.076L80.457 478.876L80.457 478.876L80.53 478.71L80.53 478.71L80.08 479.31L80.08 479.31L80.16 479.23L80.16 479.23L79.56 479.68L79.56 479.68L79.726 479.607L79.726 479.607L78.926 479.757L78.926 479.757L79.074 479.757L79.074 479.757L78.274 479.607L78.274 479.607L78.44 479.68L78.44 479.68L77.84 479.23L77.84 479.23L77.92 479.31L77.92 479.31L77.47 478.71L77.47 478.71L77.543 478.876L77.543 478.876L77.393 478.076L77.393 478.076L77.393 478.224L77.393 478.224L77.543 477.424L77.543 477.424L77.47 477.59L77.47 477.59L77.92 476.99L77.92 476.99L77.84 477.07L77.84 477.07L78.44 476.62L78.44 476.62L78.274 476.693L78.274 476.693L79.074 476.543L79.074 476.543L78.926 476.543L78.926 476.543L79.726 476.693L79.726 476.693L79.56 476.62L79.56 476.62L80.16 477.07L80.16 477.07L80.08 476.99L80.08 476.99L80.53 477.59L80.53 477.59L80.457 477.424L80.457 477.424L80.607 478.224M81.226 477.185L80.686 476.464L80.686 476.464L79.965 475.924L79.965 475.924L79 475.743L79 475.743L78.035 475.924L78.035 475.924L77.314 476.464L77.314 476.464L76.774 477.185L76.774 477.185L76.593 478.15L76.593 478.15L76.774 479.115L76.774 479.115L77.314 479.836L77.314 479.836L78.035 480.376L78.035 480.376L79 480.557L79 480.557L79.965 480.376L79.965 480.376L80.686 479.836L80.686 479.836L81.226 479.115L81.226 479.115L81.407 478.15L81.407 478.15L81.226 477.185z" stroke="none" fill="#333333" fill-rule="winding" /><path transform="matrix(1 0 0 -1 0 842)" d="M78.96 443.48L78.24 443.6L78.24 443.6L77.64 444.08L77.64 444.08L77.16 444.68L77.16 444.68L77.04 445.52L77.04 445.52L77.16 446.24L77.16 446.24L77.64 446.84L77.64 446.84L78.24 447.32L78.24 447.32L78.96 447.44L78.96 447.44L79.8 447.32L79.8 447.32L80.4 446.84L80.4 446.84L80.88 446.24L80.88 446.24L81 445.52L81 445.52L80.88 444.68L80.88 444.68L80.4 444.08L80.4 444.08L79.8 443.6L79.8 443.6L78.96 443.48" stroke="none" fill="#333333" fill-rule="evenodd" /><path transform="matrix(1 0 0 -1 0 842)" d="M80.607 445.574L80.608 445.422L80.608 445.422L80.458 446.172L80.458 446.172L80.521 446.022L80.521 446.022L80.071 446.672L80.071 446.672L80.16 446.58L80.16 446.58L79.56 447.03L79.56 447.03L79.726 446.957L79.726 446.957L78.926 447.107L78.926 447.107L79.074 447.107L79.074 447.107L78.274 446.957L78.274 446.957L78.44 447.03L78.44 447.03L77.84 446.58L77.84 446.58L77.929 446.672L77.929 446.672L77.479 446.022L77.479 446.022L77.542 446.172L77.542 446.172L77.392 445.422L77.392 445.422L77.393 445.574L77.393 445.574L77.543 444.774L77.543 444.774L77.479 444.928L77.479 444.928L77.929 444.278L77.929 444.278L77.822 444.383L77.822 444.383L78.422 443.983L78.422 443.983L78.274 444.043L78.274 444.043L79.074 443.893L79.074 443.893L78.926 443.893L78.926 443.893L79.726 444.043L79.726 444.043L79.578 443.983L79.578 443.983L80.178 444.383L80.178 444.383L80.071 444.278L80.071 444.278L80.521 444.928L80.521 444.928L80.457 444.774L80.457 444.774L80.607 445.574M81.227 444.542L80.685 443.76L80.685 443.76L79.954 443.272L79.954 443.272L79 443.093L79 443.093L78.046 443.272L78.046 443.272L77.315 443.76L77.315 443.76L76.773 444.542L76.773 444.542L76.593 445.502L76.593 445.502L76.774 446.41L76.774 446.41L77.308 447.181L77.308 447.181L78.035 447.726L78.035 447.726L79 447.907L79 447.907L79.965 447.726L79.965 447.726L80.692 447.181L80.692 447.181L81.226 446.41L81.226 446.41L81.407 445.502L81.407 445.502L81.227 444.542z" stroke="none" fill="#333333" fill-rule="winding" /></g></g></g></g></svg>